<svg width="22" height="19" viewBox="0 0 22 19" fill="none" xmlns="http://www.w3.org/2000/svg">
<path d="M10.0005 5.25027C10.0006 4.38867 10.2973 3.55337 10.8408 2.8848C11.3843 2.21624 12.1414 1.75517 12.9848 1.57913C13.8282 1.40309 14.7065 1.5228 15.4721 1.91814C16.2376 2.31348 16.8437 2.96034 17.1885 3.74997L20.5005 3.75L17.4759 6.77461C17.279 9.81678 15.9316 12.67 13.7074 14.7548C11.4833 16.8397 8.54904 17.9999 5.50051 18C2.50051 18 1.75051 16.875 1.75051 16.875C1.75051 16.875 4.75051 15.75 6.25051 13.5C6.25051 13.5 0.250506 10.5 1.75051 2.25C1.75051 2.25 5.50051 6 9.99921 6.75L10.0005 5.25027Z" stroke="#FA7701" stroke-width="2" stroke-linecap="round" stroke-linejoin="round"/>
</svg>
