<svg width="24" height="24" viewBox="0 0 24 24" fill="none" xmlns="http://www.w3.org/2000/svg">
<path d="M12.0005 8.25027C12.0006 7.38867 12.2973 6.55337 12.8408 5.8848C13.3843 5.21624 14.1414 4.75517 14.9848 4.57913C15.8282 4.40309 16.7065 4.5228 17.4721 4.91814C18.2376 5.31348 18.8437 5.96034 19.1885 6.74997L22.5005 6.75L19.4759 9.77461C19.279 12.8168 17.9316 15.67 15.7074 17.7548C13.4833 19.8397 10.549 20.9999 7.50051 21C4.50051 21 3.75051 19.875 3.75051 19.875C3.75051 19.875 6.75051 18.75 8.25051 16.5C8.25051 16.5 2.25051 13.5 3.75051 5.25C3.75051 5.25 7.50051 9 11.9992 9.75L12.0005 8.25027Z" stroke="black" stroke-width="2" stroke-linecap="round" stroke-linejoin="round"/>
</svg>
